# xmcd
#
# Track frame offsets: 
#        150
#        13870
#        33688
#        49149
#        62869
#        79835
#        96143
#        112314
#        127913
#        143461
#        158965
#        173678
#
# Disc length: 2532 seconds
#
# Revision: 0
# Processed by: cddbd v1.5.2PL0 Copyright (c) Steve Scherf et al.
# Submitted via: ExactAudioCopy v0.99pb5
#
DISCID=a109e20c
DTITLE=David Archuleta - The Other Side of Down
DYEAR=2010
DGENRE=Pop
TTITLE0=Stomping the Roses - Stomping the Roses
TTITLE1=Something - Bout Love
TTITLE2=Elevator - Elevator
TTITLE3=Stomping the Roses - Stomping the Roses
TTITLE4=Who I Am - Who I Am
TTITLE5=Falling - Stars
TTITLE6=Parachutes and Airplanes - Parachutes and Airplanes
TTITLE7=Look - Around
TTITLE8=Good - Place
TTITLE9=Complain - Complain
TTITLE10=Things Are Gonna Get Better - Things Are Gonna Get Better
TTITLE11=My Kind of Perfect - My Kind of Perfect
EXTD=
EXTT0=
EXTT1=
EXTT2=
EXTT3=
EXTT4=
EXTT5=
EXTT6=
EXTT7=
EXTT8=
EXTT9=
EXTT10=
EXTT11=
PLAYORDER=
